{"title":"Matru ki Bijlee ka Mandola 2013 BRRip 720p x264 Hindi ESubs - Vi","uid":8249756,"size":900937941,"categoryP":"video","categoryS":"hd___movies","magnet":"?xt=urn:btih:540645a4a02201c9a9b28de635d94aaaf9116536&amp;dn=Matru+ki+Bijlee+ka+Mandola+2013+BRRip+720p+x264+Hindi+ESubs+-+Vi&amp;tr=udp%3A%2F%2Ftracker.openbittorrent.com%3A80&amp;tr=udp%3A%2F%2Fopen.demonii.com%3A1337&amp;tr=udp%3A%2F%2Ftracker.coppersurfer.tk%3A6969&amp;tr=udp%3A%2F%2Fexodus.desync.com%3A6969","seeders":1,"leechers":0,"uploader":"ValidusVyto","files":-1,"time":1363144437,"description":"_________________________  Visit us at _________________________\n  &lt;a href=&quot;\nhttp://p2pdl.com&quot; rel=&quot;nofollow&quot; target=&quot;_NEW&quot;&gt;\nhttp://p2pdl.com&lt;/a&gt;  ____________________________ &lt;a href=&quot; http://p2pdl.com&quot; rel=&quot;nofollow&quot; target=&quot;_NEW&quot;&gt; http://p2pdl.com&lt;/a&gt;\n\n\nMatru ki Bijlee ka Mandola 2013 BRRip 720p x264 Hindi ESubs - ViZNU\n\n\nGenre: Comedy | Drama\nPlot: Harry is an industrialist who loves his daughter Bijlee, and the bond they share with Harry's\nman friday, Matru. Bijlee's plan to wed the son of a politician, however, brings twists and turns in\nthe lives of Matru, Bijlee and Mandola. \nDirector: Vishal Bhardwaj\nStars: Pankaj Kapur, Imran Khan, Anushka Sharma \nRated: N/a\n\n\nInfo: &lt;a href=&quot;\nhttp://www.imdb.com/title/tt2106537/&quot; rel=&quot;nofollow&quot; target=&quot;_NEW&quot;&gt;\nhttp://www.imdb.com/title/tt2106537/&lt;/a&gt;\n\nTrailer:\n\n\nFormat                         : MPEG-4\nFile size                      : 848 MiB\nDuration                       : 2h 29mn\nOverall bit rate               : 792 Kbps\nVideo Format                   : AVC\nVideo Bit rate                 : 705 Kbps\nWidth                          : 1 280 pixels\nHeight                         : 544 pixels\nDisplay aspect ratio           : 2.35:1\nFrame rate mode                : Constant\nFrame rate                     : 23.976 fps\nStream size                    : 755 MiB (89%)\nWriting library                : x264 core 129 r2245\nAudio Format                   : AAC\nAudio Bit rate                 : 84.0 Kbps\nChannel(s)                     : 2 channels\nChannel positions              : Front: L R\nSampling rate                  : 48.0 KHz\nStream size                    : 89.9 MiB (11%)\nLanguage                       : Hindi\nSubtitle                       : Yes (English)\nSource                         : 720p.Bluray.DDR(Thanks)\n\nScreenshots:\n &lt;a href=&quot;\nhttp://cdn.piczend.com/images/sqzQ8R4c/1363140125_6.jpg&quot; rel=&quot;nofollow&quot; target=&quot;_NEW&quot;&gt;\nhttp://cdn.piczend.com/images/sqzQ8R4c/1363140125_6.jpg&lt;/a&gt; &lt;a href=&quot;\nhttp://cdn.piczend.com/images/iz0SbSit/1363140143_1.png&quot; rel=&quot;nofollow&quot; target=&quot;_NEW&quot;&gt;\nhttp://cdn.piczend.com/images/iz0SbSit/1363140143_1.png&lt;/a&gt; &lt;a href=&quot;\nhttp://cdn.piczend.com/images/rrKUyKlk/1363140130_2.png&quot; rel=&quot;nofollow&quot; target=&quot;_NEW&quot;&gt;\nhttp://cdn.piczend.com/images/rrKUyKlk/1363140130_2.png&lt;/a&gt; &lt;a href=&quot;\nhttp://cdn.piczend.com/images/9oWs8VdW/1363140146_3.png&quot; rel=&quot;nofollow&quot; target=&quot;_NEW&quot;&gt;\nhttp://cdn.piczend.com/images/9oWs8VdW/1363140146_3.png&lt;/a&gt; &lt;a href=&quot;\nhttp://cdn.piczend.com/images/7y75E39W/1363140120_4.jpg&quot; rel=&quot;nofollow&quot; target=&quot;_NEW&quot;&gt;\nhttp://cdn.piczend.com/images/7y75E39W/1363140120_4.jpg&lt;/a&gt; &lt;a href=&quot;\nhttp://cdn.piczend.com/images/XZAdG7i6/1363140114_5.jpg&quot; rel=&quot;nofollow&quot; target=&quot;_NEW&quot;&gt;\nhttp://cdn.piczend.com/images/XZAdG7i6/1363140114_5.jpg&lt;/a&gt;\n\n----------------------------------------------------------------------------------------------------\n\n\nEncoded using revolutionary 10bit encoding, which enables us to provide you more crispier \nand sharper images at small sizes, just make sure you follow our instructions without a fault.\nRecommend to you to use latest version of VLC player. Install K-Lite Codec Pack or shark007 codecs\nin case of any kind of problem in playback (For non-VLC Media Player users). Alternatively, install\nCore AVC codecs, the fastest decoder that there is coupled with Community Center Codec Pack and play\non Windows Media Player Classic.\n\nEncoder Notes: Encoder Notes: Looking For Early Access To Anything You Can Provide DVDScr, R5, DVDR, BluRay, Direct\nAudio, Music Releases and Seedboxes. We require dedicated servers, so as to do more and fast releases of movies.\nIf You Got anything to offer contact us at &quot;&lt;a class=&quot;__cf_email__&quot; href=&quot;/cdn-cgi/l/email-protection&quot; data-cfemail=&quot;e2929085a28a97918acc818d8f&quot;&gt;[email&amp;#160;protected]&lt;/a&gt;&lt;script cf-hash='f9e31' type=&quot;text/javascript&quot;&gt;\n/* &lt;![CDATA[ */!function(){try{var t=&quot;currentScript&quot;in document?document.currentScript:function(){for(var t=document.getElementsByTagName(&quot;script&quot;),e=t.length;e--;)if(t[e].getAttribute(&quot;cf-hash&quot;))return t[e]}();if(t&amp;&amp;t.previousSibling){var e,r,n,i,c=t.previousSibling,a=c.getAttribute(&quot;data-cfemail&quot;);if(a){for(e=&quot;&quot;,r=parseInt(a.substr(0,2),16),n=2;a.length-n;n+=2)i=parseInt(a.substr(n,2),16)^r,e+=String.fromCharCode(i);e=document.createTextNode(e),c.parentNode.replaceChild(e,c)}}}catch(u){}}();/* ]]&gt; */&lt;/script&gt;&quot;.","torrent":{"xt":"urn:btih:540645a4a02201c9a9b28de635d94aaaf9116536","amp;dn":"Matru+ki+Bijlee+ka+Mandola+2013+BRRip+720p+x264+Hindi+ESubs+-+Vi","amp;tr":["udp%3A%2F%2Ftracker.openbittorrent.com%3A80","udp%3A%2F%2Fopen.demonii.com%3A1337","udp%3A%2F%2Ftracker.coppersurfer.tk%3A6969","udp%3A%2F%2Fexodus.desync.com%3A6969"],"infoHash":"540645a4a02201c9a9b28de635d94aaaf9116536","infoHashBuffer":{"type":"Buffer","data":[84,6,69,164,160,34,1,201,169,178,141,230,53,217,74,170,249,17,101,54]},"announce":[],"urlList":[]}}